<svg xmlns="http://www.w3.org/2000/svg" viewBox="0 0 100 100" width="100" height="100">
  <rect x="10" y="10" width="80" height="80" rx="10" fill="#E0F6FF" stroke="#4682B4" stroke-width="2"/>
  <!-- Airplane -->
  <path d="M 30 40 L 50 35 L 70 40 L 65 45 L 50 42 L 35 45 Z" fill="#C0C0C0"/>
  <path d="M 45 35 L 55 35 L 52 30 L 48 30 Z" fill="#C0C0C0"/>
  <path d="M 40 42 L 35 50 L 40 48 Z" fill="#C0C0C0"/>
  <path d="M 60 42 L 65 50 L 60 48 Z" fill="#C0C0C0"/>
  <!-- Clouds -->
  <circle cx="25" cy="25" r="4" fill="#FFFFFF" opacity="0.8"/>
  <circle cx="30" cy="25" r="5" fill="#FFFFFF" opacity="0.8"/>
  <circle cx="35" cy="25" r="4" fill="#FFFFFF" opacity="0.8"/>
  <circle cx="75" cy="30" r="3" fill="#FFFFFF" opacity="0.8"/>
  <circle cx="78" cy="30" r="4" fill="#FFFFFF" opacity="0.8"/>
  <!-- Suitcase -->
  <rect x="20" y="60" width="15" height="12" rx="2" fill="#8B4513"/>
  <rect x="22" y="58" width="11" height="2" fill="#654321"/>
  <circle cx="27.5" cy="59" r="1" fill="#FFD700"/>
  <!-- Passport -->
  <rect x="60" y="60" width="8" height="12" rx="1" fill="#8B0000"/>
  <rect x="61" y="62" width="6" height="4" fill="#FFD700"/>
  <text x="50" y="85" text-anchor="middle" font-family="Arial, sans-serif" font-size="8" fill="#666">Travel</text>
</svg>